<?xml version="1.0" encoding="utf-8"?>
<!-- Generator: Adobe Illustrator 16.0.4, SVG Export Plug-In . SVG Version: 6.00 Build 0)  -->
<!DOCTYPE svg PUBLIC "-//W3C//DTD SVG 1.1//EN" "http://www.w3.org/Graphics/SVG/1.1/DTD/svg11.dtd">
<svg version="1.1" id="Layer_1" xmlns="http://www.w3.org/2000/svg" xmlns:xlink="http://www.w3.org/1999/xlink" x="0px" y="0px"
	 width="150px" height="150px" viewBox="181 181 150 150" enable-background="new 181 181 150 150" xml:space="preserve">
<g>
	<g>
		<path fill="#7E44B4" d="M325.352,274.175h-36.285V181h-27.426v43.179h-11.28V181h-27.426v93.174h-36.286
			c-3.114,0-5.648,3.57-5.648,7.959v40.908c0,4.389,2.534,7.958,5.648,7.958h138.704c3.114,0,5.647-3.569,5.647-7.958v-40.908
			C331,277.745,328.467,274.175,325.352,274.175z M227.781,187.83h17.732v36.351h-8.867v6.83h38.707v-6.83h-8.867V187.83h17.733
			v68.166h-56.438V187.83z M227.781,262.825h56.438v11.35h-56.438V262.825z M326.153,323.042c0,0.622-0.359,1.128-0.802,1.128
			H186.648c-0.442,0-0.801-0.506-0.801-1.128v-17.038h19.685c1.058,5.238,4.483,9.088,8.537,9.088c4.052,0,7.477-3.85,8.534-9.088
			h24.864c1.058,5.238,4.483,9.088,8.537,9.088c4.052,0,7.476-3.85,8.534-9.088h24.862c1.058,5.238,4.481,9.088,8.534,9.088
			c4.054,0,7.479-3.85,8.537-9.088h19.684V323.042L326.153,323.042z M210.039,302.59c0-3.131,1.808-5.677,4.029-5.677
			c2.22,0,4.026,2.547,4.026,5.677c0,3.128-1.806,5.673-4.026,5.673C211.846,308.263,210.039,305.718,210.039,302.59z
			 M251.973,302.59c0-3.131,1.808-5.677,4.029-5.677c2.22,0,4.025,2.547,4.025,5.677c0,3.128-1.806,5.673-4.025,5.673
			C253.78,308.263,251.973,305.718,251.973,302.59z M293.906,302.59c0-3.131,1.807-5.677,4.026-5.677
			c2.222,0,4.029,2.547,4.029,5.677c0,3.128-1.808,5.673-4.029,5.673C295.713,308.263,293.906,305.718,293.906,302.59z
			 M326.153,299.175H306.47c-1.058-5.241-4.483-9.092-8.537-9.092c-4.053,0-7.477,3.852-8.534,9.092h-24.863
			c-1.058-5.241-4.481-9.092-8.534-9.092c-4.054,0-7.479,3.852-8.537,9.092h-24.863c-1.057-5.241-4.481-9.092-8.534-9.092
			c-4.054,0-7.479,3.852-8.537,9.092h-19.684v-17.041c0-0.623,0.359-1.13,0.801-1.13h138.704c0.442,0,0.801,0.507,0.801,1.13
			V299.175L326.153,299.175z"/>
	</g>
</g>
<g>
	<g>
		<rect x="252.774" y="240.085" fill="#7E44B4" width="6.453" height="6.83"/>
	</g>
</g>
<g>
	<g>
		<rect x="265.676" y="240.085" fill="#7E44B4" width="6.453" height="6.83"/>
	</g>
</g>
<g>
	<g>
		<rect x="239.872" y="240.085" fill="#7E44B4" width="6.453" height="6.83"/>
	</g>
</g>
</svg>
