<?xml version="1.0" encoding="utf-8"?>
<!-- Generator: Adobe Illustrator 16.0.4, SVG Export Plug-In . SVG Version: 6.00 Build 0)  -->
<!DOCTYPE svg PUBLIC "-//W3C//DTD SVG 1.1//EN" "http://www.w3.org/Graphics/SVG/1.1/DTD/svg11.dtd">
<svg version="1.1" id="Layer_1" xmlns="http://www.w3.org/2000/svg" xmlns:xlink="http://www.w3.org/1999/xlink" x="0px" y="0px"
	 width="150px" height="150px" viewBox="231 321 150 150" enable-background="new 231 321 150 150" xml:space="preserve">
<g>
	<g>
		<path fill="#7E44B4" d="M377.315,358.768h-5.274v-15.176c5.154-1.319,8.959-5.793,8.959-11.098
			c0-6.337-5.431-11.494-12.106-11.494s-12.106,5.157-12.106,11.494c0,5.305,3.806,9.779,8.959,11.098v15.176h-3.717
			c-6.475-7.529-14.676-13.767-23.805-18.092c-10.061-4.767-20.902-7.183-32.225-7.183c-11.322,0-22.164,2.417-32.225,7.184
			c-9.129,4.325-17.33,10.562-23.804,18.092h-3.718v-15.176c5.154-1.319,8.959-5.793,8.959-11.098
			c0-6.337-5.431-11.494-12.106-11.494c-6.676,0-12.106,5.157-12.106,11.494c0,5.305,3.805,9.779,8.959,11.098v15.176h-5.274
			c-1.738,0-3.147,1.338-3.147,2.988v80.98c0,1.65,1.409,2.988,3.147,2.988h15.517c1.029,1.187,2.098,2.33,3.197,3.44v18.847
			c0,1.649,1.409,2.988,3.147,2.988h98.91c1.738,0,3.147-1.339,3.147-2.988v-18.847c1.099-1.11,2.167-2.254,3.196-3.44h15.517
			c1.738,0,3.147-1.338,3.147-2.988v-80.98C380.463,360.105,379.054,358.768,377.315,358.768z M363.082,332.494
			c0-3.043,2.606-5.518,5.812-5.518s5.812,2.475,5.812,5.518c0,3.043-2.607,5.519-5.812,5.519S363.082,335.537,363.082,332.494z
			 M237.294,332.494c0-3.043,2.607-5.518,5.812-5.518c3.205,0,5.812,2.475,5.812,5.518c0,3.043-2.607,5.519-5.812,5.519
			C239.901,338.012,237.294,335.537,237.294,332.494z M259.692,465.023v-10.212c5.273,4.193,11.111,7.625,17.351,10.212H259.692z
			 M352.308,465.023h-17.351c6.24-2.586,12.078-6.019,17.351-10.212V465.023z M374.169,439.748L374.169,439.748h-13.875
			c-0.963,0-1.874,0.419-2.471,1.138c-12.608,15.169-31.497,23.87-51.823,23.87s-39.215-8.7-51.823-23.87
			c-0.597-0.719-1.507-1.138-2.47-1.138h-13.875v-75.004h13.653c0.969,0,1.884-0.424,2.481-1.149
			c12.609-15.333,31.575-24.126,52.034-24.126s39.425,8.794,52.034,24.126c0.597,0.725,1.512,1.149,2.48,1.149h13.654V439.748z"/>
	</g>
</g>
<g>
	<g>
		<path fill="#7E44B4" d="M306,346.709c-5.706,0-10.348,4.408-10.348,9.825c0,5.417,4.642,9.825,10.348,9.825
			c5.706,0,10.348-4.407,10.348-9.825C316.348,351.117,311.706,346.709,306,346.709z M306,360.383c-2.235,0-4.054-1.726-4.054-3.849
			c0-2.122,1.818-3.849,4.054-3.849c2.234,0,4.054,1.727,4.054,3.849C310.054,358.657,308.234,360.383,306,360.383z"/>
	</g>
</g>
<g>
	<g>
		<path fill="#7E44B4" d="M279.373,362.936c-4.034-3.83-10.599-3.83-14.634,0c-4.034,3.831-4.034,10.064,0,13.895
			c1.955,1.856,4.553,2.878,7.317,2.878s5.363-1.022,7.317-2.878C283.407,373,283.407,366.767,279.373,362.936z M274.922,372.605
			c-0.766,0.727-1.783,1.127-2.866,1.127s-2.101-0.401-2.866-1.127c-1.581-1.5-1.581-3.942,0-5.443
			c0.791-0.75,1.829-1.125,2.866-1.125c1.038,0,2.076,0.375,2.866,1.125C276.502,368.663,276.502,371.104,274.922,372.605z"/>
	</g>
</g>
<g>
	<g>
		<path fill="#7E44B4" d="M257.996,392.287c-5.706,0-10.348,4.407-10.348,9.824c0,5.418,4.642,9.825,10.348,9.825
			c5.706,0,10.347-4.407,10.347-9.825C268.343,396.694,263.702,392.287,257.996,392.287z M257.996,405.961
			c-2.235,0-4.054-1.727-4.054-3.85c0-2.121,1.818-3.849,4.054-3.849s4.053,1.727,4.053,3.849
			C262.049,404.234,260.231,405.961,257.996,405.961z"/>
	</g>
</g>
<g>
	<g>
		<path fill="#7E44B4" d="M279.373,427.393c-1.954-1.855-4.553-2.877-7.317-2.877s-5.363,1.021-7.317,2.877
			c-4.034,3.831-4.034,10.064,0,13.895c2.018,1.915,4.667,2.873,7.317,2.873c2.65,0,5.3-0.958,7.317-2.873
			C283.407,437.457,283.407,431.224,279.373,427.393z M274.922,437.062c-1.58,1.5-4.152,1.501-5.732,0s-1.581-3.942,0-5.443
			c0.766-0.727,1.783-1.127,2.866-1.127c1.083,0,2.101,0.4,2.866,1.127C276.502,433.119,276.502,435.561,274.922,437.062z"/>
	</g>
</g>
<g>
	<g>
		<path fill="#7E44B4" d="M306,437.864c-5.706,0-10.348,4.408-10.348,9.825s4.642,9.824,10.348,9.824
			c5.706,0,10.348-4.407,10.348-9.824S311.706,437.864,306,437.864z M306,451.538c-2.235,0-4.054-1.727-4.054-3.849
			s1.818-3.849,4.054-3.849c2.234,0,4.054,1.727,4.054,3.849S308.234,451.538,306,451.538z"/>
	</g>
</g>
<g>
	<g>
		<path fill="#7E44B4" d="M347.261,427.393c-1.954-1.855-4.553-2.877-7.316-2.877c-2.765,0-5.362,1.021-7.317,2.877
			c-4.034,3.831-4.034,10.064,0,13.895c2.018,1.915,4.667,2.873,7.317,2.873c2.649,0,5.299-0.958,7.316-2.873
			C351.295,437.457,351.295,431.224,347.261,427.393z M342.811,437.062c-1.581,1.501-4.152,1.5-5.733,0
			c-1.58-1.501-1.58-3.942,0-5.443c0.766-0.727,1.784-1.127,2.866-1.127c1.083,0,2.101,0.4,2.866,1.127
			C344.391,433.119,344.391,435.561,342.811,437.062z"/>
	</g>
</g>
<g>
	<g>
		<path fill="#7E44B4" d="M354.004,392.287c-5.706,0-10.348,4.407-10.348,9.824c0,5.418,4.643,9.825,10.348,9.825
			s10.348-4.407,10.348-9.825C364.352,396.694,359.71,392.287,354.004,392.287z M354.004,405.961c-2.235,0-4.054-1.727-4.054-3.85
			c0-2.121,1.818-3.849,4.054-3.849c2.234,0,4.054,1.727,4.054,3.849C358.058,404.234,356.239,405.961,354.004,405.961z"/>
	</g>
</g>
<g>
	<g>
		<path fill="#7E44B4" d="M327.234,381.951c-11.709-11.116-30.76-11.116-42.468,0c-11.708,11.117-11.708,29.205,0,40.322
			c5.854,5.559,13.544,8.337,21.234,8.337c7.69,0,15.38-2.779,21.234-8.337C338.942,411.156,338.942,393.068,327.234,381.951z
			 M322.783,418.047c-9.255,8.785-24.312,8.786-33.567,0s-9.254-23.083,0-31.87c4.628-4.394,10.705-6.589,16.784-6.589
			c6.077,0,12.156,2.197,16.783,6.589C332.038,394.963,332.038,409.261,322.783,418.047z"/>
	</g>
</g>
<g>
	<g>
		<path fill="#7E44B4" d="M347.262,362.936c-4.035-3.83-10.6-3.83-14.634,0c-4.035,3.831-4.035,10.064,0,13.895
			c1.954,1.856,4.552,2.878,7.316,2.878c2.764,0,5.362-1.022,7.317-2.878C351.296,373,351.296,366.767,347.262,362.936z
			 M342.811,372.605c-0.766,0.727-1.784,1.127-2.866,1.127s-2.101-0.401-2.866-1.127c-1.58-1.5-1.58-3.942,0-5.443
			c0.79-0.75,1.828-1.125,2.866-1.125s2.076,0.375,2.866,1.125C344.391,368.663,344.391,371.104,342.811,372.605z"/>
	</g>
</g>
<g>
	<g>
		<path fill="#7E44B4" d="M296.14,411.474c-4.833-4.59-5.469-11.751-1.512-17.027c1.008-1.344,0.678-3.21-0.738-4.167
			c-1.416-0.957-3.381-0.644-4.39,0.701c-5.748,7.663-4.827,18.058,2.188,24.719c0.615,0.584,1.42,0.875,2.226,0.875
			c0.805,0,1.611-0.291,2.225-0.875C297.369,414.532,297.37,412.641,296.14,411.474z"/>
	</g>
</g>
<g>
	<g>
		<path fill="#7E44B4" d="M305.62,385.617c-0.35-1.617-2.014-2.657-3.717-2.324c-1.276,0.25-2.531,0.618-3.729,1.094
			c-1.603,0.638-2.358,2.389-1.687,3.911c0.505,1.145,1.673,1.834,2.904,1.834c0.406,0,0.817-0.075,1.215-0.233
			c0.823-0.328,1.687-0.581,2.566-0.752C304.875,388.813,305.971,387.233,305.62,385.617z"/>
	</g>
</g>
</svg>
