<?xml version="1.0" encoding="utf-8"?>
<!-- Generator: Adobe Illustrator 16.0.4, SVG Export Plug-In . SVG Version: 6.00 Build 0)  -->
<!DOCTYPE svg PUBLIC "-//W3C//DTD SVG 1.1//EN" "http://www.w3.org/Graphics/SVG/1.1/DTD/svg11.dtd">
<svg version="1.1" id="Layer_1" xmlns="http://www.w3.org/2000/svg" xmlns:xlink="http://www.w3.org/1999/xlink" x="0px" y="0px"
	 width="150px" height="150px" viewBox="231 321 150 150" enable-background="new 231 321 150 150" xml:space="preserve">
<g>
	<g>
		<path fill="#7E44B4" d="M322.807,349.011c-2.905-3.526-7.435-5.548-12.429-5.548c-8.918,0-16.89,6.572-17.771,14.659
			c-0.395,3.699,0.668,7.287,2.995,10.104c2.858,3.461,7.348,5.446,12.318,5.446c9.149,0,17.004-6.439,17.882-14.65
			C326.197,355.391,325.134,351.835,322.807,349.011z M318.649,358.122c-0.45,4.216-5.364,7.778-10.729,7.778
			c-2.877,0-5.473-1.063-6.943-2.845c-0.969-1.173-1.378-2.533-1.218-4.034c0.452-4.148,5.414-7.787,10.619-7.787
			c2.896,0,5.53,1.1,7.048,2.94C318.092,354.983,318.846,356.323,318.649,358.122z"/>
	</g>
</g>
<g>
	<g>
		<path fill="#7E44B4" d="M319.404,431.882c-0.9-0.651-3.007-2.177-1.307-12.763c0.044-0.23,0.215-1.084,0.48-2.41
			c0.604-3.021,1.728-8.646,2.948-14.918c0.003-0.014,0.006-0.028,0.009-0.042c1.246-6.778,0.26-12.708-2.853-17.148
			c-2.811-4.009-7.259-6.466-12.526-6.919c-7.789-0.673-15.937,4.344-18.433,9.282c-1.154,2.188-0.602,3.965-0.166,4.834
			c0.539,1.075,1.325,1.678,1.899,2.117c0.885,0.678,2.957,2.265,0.99,12.829c-0.184,0.967-2.93,16.031-3.292,18.17
			c-0.003,0.015-0.005,0.028-0.007,0.043c-1.082,6.811-0.012,12.763,3.267,17.062c5.28,6.921,13.318,6.589,13.632,6.589
			c7.491,0,14.979-5.021,17.258-9.827c1.102-2.22,0.507-3.98,0.05-4.837C320.79,432.885,319.989,432.305,319.404,431.882z
			 M314.475,400.216c-1.216,6.242-2.335,11.844-2.937,14.854c-0.409,2.047-0.491,2.463-0.521,2.633
			c-0.002,0.014-0.004,0.028-0.007,0.042c-1.828,11.34,0.022,16.303,2.641,19.079c-0.715,0.689-1.695,1.434-2.908,2.109
			c-2.386,1.328-5.029,2.016-7.254,1.889c-3.242-0.188-5.818-1.449-7.447-3.652c-1.897-2.563-2.52-6.324-1.801-10.876
			c0.392-2.302,3.141-17.371,3.256-17.971c0.002-0.013,0.004-0.025,0.007-0.038c2.103-11.285,0.373-16.298-2.177-19.148
			c0.732-0.668,1.73-1.384,2.959-2.025c2.417-1.26,5.078-1.874,7.298-1.683c3.237,0.278,5.78,1.613,7.355,3.861
			C314.773,391.906,315.305,395.685,314.475,400.216z"/>
	</g>
</g>
<g>
	<g>
		<path fill="#7E44B4" d="M365.652,439.938C375.564,427.101,381,411.244,381,395.05c0-19.849-7.845-38.489-22.088-52.487
			c-14.15-13.905-32.941-21.563-52.911-21.563c-19.97,0-38.762,7.658-52.912,21.564C238.845,356.561,231,375.201,231,395.05
			c0,19.848,7.845,38.49,22.088,52.487c14.15,13.905,32.941,21.563,52.911,21.563c12.487,0,24.795-3.076,35.704-8.912l26.138,10.564
			c0.411,0.166,0.838,0.246,1.262,0.246c0.891,0,1.767-0.356,2.443-1.03c0.999-0.995,1.394-2.513,1.02-3.923L365.652,439.938z
			 M342.746,452.312c-0.958-0.388-2.023-0.316-2.931,0.194c-10.236,5.772-21.93,8.823-33.815,8.823
			c-37.384,0-67.799-29.731-67.799-66.279c0-36.546,30.414-66.28,67.799-66.28s67.799,29.732,67.799,66.279
			c0,15.208-5.131,29.513-14.839,41.373c-0.813,0.993-1.102,2.366-0.764,3.641l5.484,20.71L342.746,452.312z"/>
	</g>
</g>
</svg>
