<?xml version="1.0" encoding="utf-8"?>
<!-- Generator: Adobe Illustrator 16.0.4, SVG Export Plug-In . SVG Version: 6.00 Build 0)  -->
<!DOCTYPE svg PUBLIC "-//W3C//DTD SVG 1.1//EN" "http://www.w3.org/Graphics/SVG/1.1/DTD/svg11.dtd">
<svg version="1.1" id="Layer_1" xmlns="http://www.w3.org/2000/svg" xmlns:xlink="http://www.w3.org/1999/xlink" x="0px" y="0px"
	 width="149.996px" height="150px" viewBox="1.754 0 149.996 150" enable-background="new 1.754 0 149.996 150"
	 xml:space="preserve">
<g id="Capa_1">
	<g>
		<g id="XMLID_1_">
			<g>
				<path fill="#7E44B4" d="M140.416,6.75c0.869,0,1.578,0.606,1.578,1.351c0,0.745-0.709,1.35-1.578,1.35h-12.352
					c-0.867,0-1.572-0.604-1.572-1.35c0-0.747,0.705-1.351,1.572-1.351H140.416z"/>
				<path fill="#7E44B4" d="M151.75,1.338v32.335c0,0.75-0.707,1.351-1.574,1.351h-4.227v11.758c0,0.735-0.707,1.344-1.576,1.344
					h-3.369v10.21c0,0.311-0.127,0.614-0.359,0.863l-4.824,5.018v45.809l4.5-3.852c0.611-0.521,1.611-0.521,2.225,0
					c0.615,0.527,0.615,1.383,0,1.904l-4.473,3.832h6.324c0.873,0,1.576,0.6,1.576,1.342c0,0.748-0.703,1.348-1.576,1.348h-6.324
					l4.473,3.826c0.615,0.527,0.615,1.383,0,1.906c-0.307,0.266-0.711,0.396-1.113,0.396c-0.404,0-0.811-0.131-1.109-0.396
					l-4.5-3.846v5.326c0,0.742-0.705,1.348-1.574,1.348c-0.873,0-1.576-0.605-1.576-1.348v-5.285l-4.447,3.805
					c-0.311,0.266-0.713,0.396-1.111,0.396c-0.406,0-0.811-0.131-1.115-0.396c-0.615-0.521-0.615-1.379,0-1.906l4.475-3.826h-6.328
					c-0.871,0-1.574-0.6-1.574-1.348c0-0.742,0.703-1.342,1.574-1.342h6.328l-4.475-3.832c-0.615-0.521-0.615-1.377,0-1.904
					c0.613-0.521,1.609-0.521,2.229,0l4.447,3.809V64.219l-4.826-5.017c-0.232-0.249-0.359-0.548-0.359-0.865v-10.21h-3.367
					c-0.871,0-1.576-0.604-1.576-1.343V35.028h-4.229c-0.867,0-1.572-0.604-1.572-1.352V16.792H37.897
					c-0.471,0.615-1.025,1.186-1.646,1.693l28.038,48.514c5.983,0.19,10.783,4.417,10.783,9.583c0,5.051-4.603,9.205-10.404,9.559
					l-27.486,47.562c5.207,3.424,8.587,8.785,8.637,14.811c0.006,0.055,0.009,0.092,0.009,0.139c0,0.744-0.703,1.348-1.574,1.348
					c-0.003,0-0.009,0-0.012,0H3.326c-0.865,0-1.571-0.604-1.571-1.348c0-10.393,9.884-18.848,22.031-18.848
					c0.639,0,1.269,0.029,1.89,0.074l28.246-48.867c-0.812-1.324-1.272-2.83-1.272-4.43c0-1.475,0.392-2.873,1.089-4.114
					L23.465,20.092c-3.646-1.584-6.145-4.824-6.145-8.557c0-5.287,5.027-9.586,11.213-9.586c3.912,0,7.361,1.726,9.366,4.335h78.846
					v-4.94c0-0.744,0.705-1.345,1.572-1.345h31.875C151.043-0.006,151.75,0.594,151.75,1.338z M148.6,32.329V18.112h-28.723v3.68
					h17.736c0.869,0,1.57,0.604,1.57,1.349c0,0.746-0.701,1.354-1.57,1.354h-17.736v7.836L148.6,32.329L148.6,32.329z M148.6,15.422
					V2.682h-28.723v4.656c0.023,0.09,0.035,0.188,0.035,0.29c0,0.1-0.012,0.189-0.035,0.285v7.242
					c0.023,0.088,0.029,0.171,0.035,0.267H148.6L148.6,15.422z M142.797,45.433V35.024h-17.111v10.409H142.797z M137.854,57.857
					v-9.73h-7.229v9.73l3.615,3.752L137.854,57.857z M116.729,14.098V8.973H39.316c0.264,0.818,0.408,1.675,0.408,2.562
					c0,0.891-0.143,1.748-0.408,2.562L116.729,14.098L116.729,14.098z M71.907,76.582c0-3.806-3.62-6.902-8.062-6.902
					c-4.443,0-8.062,3.101-8.062,6.902c0,3.799,3.616,6.893,8.062,6.893C68.29,83.475,71.907,80.381,71.907,76.582z M34.512,132.207
					L61.271,85.91c-2.017-0.408-3.817-1.281-5.254-2.48l-27.099,46.896C30.905,130.74,32.786,131.375,34.512,132.207z M60.948,67.32
					L33.635,20.057c-1.535,0.683-3.28,1.063-5.125,1.063c-0.325,0-0.646-0.013-0.967-0.036l28.23,48.848
					C57.168,68.693,58.95,67.775,60.948,67.32z M4.954,147.301h37.633c-0.188-1.928-0.777-3.756-1.689-5.434
					c-0.155,0.043-0.327,0.072-0.505,0.072H19.827c-0.873,0-1.578-0.604-1.578-1.346c0-0.744,0.708-1.348,1.578-1.348h19.289
					c-2.938-3.494-7.461-5.949-12.667-6.582c-0.023-0.006-0.053-0.01-0.079-0.016c-0.854-0.098-1.715-0.152-2.596-0.152
					C13.885,132.498,5.754,139.025,4.954,147.301z M36.577,11.532c0-3.798-3.622-6.896-8.066-6.896
					c-4.441,0-8.062,3.101-8.062,6.896c0,3.801,3.621,6.899,8.062,6.899C32.958,18.432,36.577,15.334,36.577,11.532z"/>
			</g>
		</g>
	</g>
</g>
<g id="Layer_2">
</g>
</svg>
