<?xml version="1.0" encoding="utf-8"?>
<!-- Generator: Adobe Illustrator 16.0.4, SVG Export Plug-In . SVG Version: 6.00 Build 0)  -->
<!DOCTYPE svg PUBLIC "-//W3C//DTD SVG 1.1//EN" "http://www.w3.org/Graphics/SVG/1.1/DTD/svg11.dtd">
<svg version="1.1" id="Capa_1" xmlns="http://www.w3.org/2000/svg" xmlns:xlink="http://www.w3.org/1999/xlink" x="0px" y="0px"
	 width="150px" height="150px" viewBox="231 321 150 150" enable-background="new 231 321 150 150" xml:space="preserve">
<g>
	<path fill="#7E44B4" d="M356.255,416.56c2.799,0,5.076-2.277,5.076-5.076c0-2.8-2.277-5.076-5.076-5.076
		c-2.8,0-5.076,2.276-5.076,5.076C351.179,414.281,353.455,416.56,356.255,416.56z"/>
	<path fill="#7E44B4" d="M361.938,425.415l-2.287,2.287c-1.398-0.646-2.953-1.01-4.592-1.01c-6.058,0-10.986,4.929-10.986,10.986
		s4.929,10.986,10.986,10.986s10.986-4.929,10.986-10.986c0-1.639-0.363-3.193-1.01-4.592l2.287-2.288
		c1.486-1.487,1.486-3.897,0-5.384C365.835,423.929,363.425,423.929,361.938,425.415z M355.058,441.052
		c-1.859,0-3.372-1.513-3.372-3.372s1.513-3.372,3.372-3.372s3.372,1.514,3.372,3.372
		C358.43,439.539,356.917,441.052,355.058,441.052z"/>
	<path fill="#7E44B4" d="M377.193,353.742c2.104,0,3.807-1.704,3.807-3.807v-16.751c0-2.103-1.703-3.807-3.807-3.807h-79.949v-4.568
		c0-2.103-1.704-3.807-3.807-3.807h-25.126c-2.103,0-3.807,1.704-3.807,3.807v4.568H251.56c-2.103,0-3.807,1.704-3.807,3.807v4.569
		h-9.137v-4.569c0-2.103-1.704-3.807-3.807-3.807s-3.807,1.704-3.807,3.807v16.751c0,2.103,1.704,3.807,3.807,3.807
		s3.807-1.704,3.807-3.807v-4.568h9.137v4.568c0,2.103,1.704,3.807,3.807,3.807h12.944v21.32c0,2.103,1.704,3.807,3.807,3.807h1.903
		v14.847c0,1.273,0.636,2.461,1.695,3.167l6.853,4.569c0.64,0.426,1.376,0.639,2.112,0.639s1.472-0.213,2.112-0.639l6.853-4.569
		c1.059-0.706,1.695-1.894,1.695-3.167v-14.847h1.903c2.103,0,3.807-1.704,3.807-3.807v-21.32h42.64v25.888h-4.569
		c-2.103,0-3.807,1.704-3.807,3.807v29.696H251.56c-2.103,0-3.807,1.704-3.807,3.807v16.752c0,1.814,1.281,3.377,3.061,3.732
		l80.696,16.14v13.63c0,2.104,1.704,3.808,3.807,3.808h41.878c2.104,0,3.808-1.704,3.808-3.808v-83.756
		c0-2.103-1.704-3.807-3.808-3.807h-4.568v-25.888H377.193z M255.367,346.127v-9.137h9.137v9.137H255.367z M283.919,391.679
		l-3.045,2.03l-3.045-2.03v-12.43h6.091L283.919,391.679L283.919,391.679z M272.118,328.615h17.512v42.639h-17.512V328.615z
		 M297.244,336.991h76.142v9.137h-76.142V336.991z M255.367,430.569v-9.822h76.142v25.051L255.367,430.569z M373.387,463.387
		h-34.265v-76.143h34.265V463.387z M365.011,379.63h-17.513v-25.888h17.513V379.63z"/>
</g>
</svg>
