<?xml version="1.0" encoding="utf-8"?>
<!-- Generator: Adobe Illustrator 16.0.4, SVG Export Plug-In . SVG Version: 6.00 Build 0)  -->
<!DOCTYPE svg PUBLIC "-//W3C//DTD SVG 1.1//EN" "http://www.w3.org/Graphics/SVG/1.1/DTD/svg11.dtd">
<svg version="1.1" id="Layer_1" xmlns="http://www.w3.org/2000/svg" xmlns:xlink="http://www.w3.org/1999/xlink" x="0px" y="0px"
	 width="150px" height="150px" viewBox="181 181 150 150" enable-background="new 181 181 150 150" xml:space="preserve">
<g transform="translate(1 1)">
	<g>
		<g>
			<path fill="#7E44B4" d="M196.25,311.842c1.25-1.184,1.75-3.552,1-5.525c-0.75-1.975-2.25-7.105-2.25-15.79
				c0-8.684,1.5-13.815,2.25-15.789s0.25-4.343-1-5.526c-1.25-0.79-2.75-0.395-3.5,1.578c-0.75,2.369-2.75,9.079-2.75,19.737
				s2,17.369,2.75,19.737c0.5,1.185,1.5,1.974,2.25,1.974C195.5,312.236,196,312.236,196.25,311.842z"/>
			<path fill="#7E44B4" d="M220,290.526c0-8.684,1.5-13.815,2.25-15.789c0.5-1.974,0.25-4.343-1-5.526
				c-1.25-0.79-2.75-0.395-3.5,1.578c-0.75,2.369-2.75,9.079-2.75,19.737s2,17.369,2.75,19.737c0.5,1.185,1.5,1.974,2.25,1.974
				c0.5,0,1,0,1.25-0.395c1.25-1.185,1.75-3.553,1-5.526S220,299.211,220,290.526z"/>
			<path fill="#7E44B4" d="M277.5,266.842h-15c-1.5,0-2.5,1.579-2.5,3.947c0,2.369,1,3.947,2.5,3.947h15c1.5,0,2.5-1.578,2.5-3.947
				C280,268.421,279,266.842,277.5,266.842z"/>
			<path fill="#7E44B4" d="M327.458,268.184c-1.438-5.637-3.423-10.191-5.78-13.184c4.999-6.346,8.322-19.724,8.322-35.526
				c0-7.38-0.728-14.227-2.01-20.081c-0.037-0.897-0.225-1.667-0.532-2.262C324.802,186.726,320.288,180,315,180H207.5
				c-8.25,0-15,17.369-15,39.474c0,13.978,2.601,26.055,6.661,33.051c-1.314-0.953-2.708-1.472-4.161-1.472
				c-8.5,0-15,17.369-15,39.474S186.5,330,195,330h25h95c8.5,0,15-17.368,15-39.474c0-7.38-0.728-14.227-2.01-20.08
				C327.953,269.549,327.766,268.778,327.458,268.184z M315,187.895c2.238,0,4.587,2.894,6.446,7.895H290h-2.5H250
				c-1.5,0-2.5,1.579-2.5,3.948c0,2.368,1,3.947,2.5,3.947h37.5h2.5h33.589c0.678,3.507,1.147,7.492,1.327,11.842H302.5
				c-1.5,0-2.5,1.579-2.5,3.947c0,2.368,1,3.947,2.5,3.947h22.416c-0.679,16.424-5.511,27.631-9.916,27.631h-95h-3.25
				c1.099-2.231,2.075-4.892,2.896-7.895H242.5c1.5,0,2.5-1.579,2.5-3.947c0-2.369-1-3.947-2.5-3.947h-21.184
				c0.288-1.823,0.523-3.723,0.71-5.682c0.006-0.063,0.013-0.125,0.019-0.188c0.043-0.46,0.081-0.926,0.118-1.393
				c0.022-0.274,0.043-0.549,0.063-0.826c0.027-0.376,0.052-0.755,0.075-1.136c0.022-0.379,0.043-0.761,0.062-1.145
				c0.016-0.322,0.032-0.644,0.045-0.969c0.019-0.472,0.033-0.948,0.046-1.425c0.007-0.258,0.016-0.514,0.021-0.773
				c0.015-0.745,0.024-1.496,0.024-2.252c0-0.74-0.009-1.473-0.023-2.202c-0.009-0.426-0.023-0.847-0.037-1.27
				c-0.008-0.255-0.015-0.511-0.025-0.764c-0.156-4.077-0.531-7.96-1.098-11.554H240c1.5,0,2.5-1.579,2.5-3.947
				c0-2.369-1-3.947-2.5-3.947h-20.354c-0.822-3.002-1.797-5.663-2.896-7.895H315z M220,322.105c-0.147,0-0.295-0.013-0.443-0.037
				c-0.002-0.001-0.004-0.001-0.006-0.001c-2.812-0.478-5.733-5.391-7.592-13.204c-0.02-0.096-0.042-0.19-0.067-0.281
				C210.73,303.59,210,297.443,210,290.526c0-18.553,5.25-31.579,10-31.579s10,13.026,10,31.579
				C230,309.08,224.75,322.105,220,322.105z M207.5,258.947h3.364c-1.314,2.609-2.451,5.781-3.364,9.396
				c-1.092-4.325-2.506-8.016-4.161-10.867C204.653,258.429,206.046,258.947,207.5,258.947z M207.5,187.895
				c4.75,0,10,13.026,10,31.579c0,18.553-5.25,31.579-10,31.579s-10-13.026-10-31.579C197.5,200.92,202.75,187.895,207.5,187.895z
				 M185,290.526c0-18.553,5.25-31.579,10-31.579s10,13.026,10,31.579c0,17.933-4.905,30.699-9.522,31.533
				c-0.024,0.004-0.048,0.008-0.072,0.012c-0.136,0.021-0.271,0.035-0.406,0.035C190.25,322.105,185,309.079,185,290.526z
				 M205.566,318.859c0.557-1.438,1.071-2.99,1.535-4.648h0.799c0.837,2.996,1.835,5.653,2.964,7.895h-6.614
				C204.696,321.048,205.142,319.986,205.566,318.859z M315,322.105h-85.75c1.099-2.231,2.1-4.892,2.955-7.895H255
				c1.5,0,2.5-1.579,2.5-3.947s-1-3.947-2.5-3.947h-21.033c0.814-4.819,1.283-10.155,1.283-15.79c0-5.633-0.469-10.97-1.283-15.789
				H252.5c1.5,0,2.5-1.579,2.5-3.947s-1-3.947-2.5-3.947h-20.295c-0.855-3.002-1.856-5.663-2.955-7.895H315
				c2.238,0,4.587,2.895,6.446,7.895H287.5c-1.5,0-2.5,1.579-2.5,3.947s1,3.947,2.5,3.947h36.089
				c0.678,3.507,1.147,7.492,1.327,11.842H302.5c-1.5,0-2.5,1.58-2.5,3.947c0,2.369,1,3.948,2.5,3.948h22.416
				C324.237,310.898,319.405,322.105,315,322.105z"/>
			<path fill="#7E44B4" d="M292.5,290.526c0-2.368-1-3.947-2.5-3.947h-7.5c-1.5,0-2.5,1.579-2.5,3.947s1,3.947,2.5,3.947h7.5
				C291.5,294.474,292.5,292.895,292.5,290.526z"/>
			<path fill="#7E44B4" d="M270,290.526c0-2.368-1-3.947-2.5-3.947h-25c-1.5,0-2.5,1.579-2.5,3.947s1,3.947,2.5,3.947h25
				C269,294.474,270,292.895,270,290.526z"/>
			<path fill="#7E44B4" d="M312.5,306.316h-20c-1.5,0-2.5,1.578-2.5,3.946c0,2.369,1,3.948,2.5,3.948h20c1.5,0,2.5-1.579,2.5-3.947
				S314,306.316,312.5,306.316z"/>
			<path fill="#7E44B4" d="M275,306.316h-5c-1.5,0-2.5,1.578-2.5,3.946c0,2.369,1,3.948,2.5,3.948h5c1.5,0,2.5-1.579,2.5-3.947
				S276.5,306.316,275,306.316z"/>
			<path fill="#7E44B4" d="M207.5,241.184c0.5,0,1-0.395,1.25-0.395c1.25-1.185,1.75-3.553,1-5.527
				c-0.75-1.974-2.25-7.105-2.25-15.789s1.5-13.816,2.25-15.79c0.75-1.973,0.25-4.342-1-5.526c-1.25-0.79-2.75-0.395-3.5,1.579
				c-0.75,2.368-2.75,9.079-2.75,19.737c0,10.658,2,17.369,2.75,19.737C205.75,240.395,206.75,241.184,207.5,241.184z"/>
			<path fill="#7E44B4" d="M265,223.421h7.5c1.5,0,2.5-1.579,2.5-3.947c0-2.369-1-3.947-2.5-3.947H265c-1.5,0-2.5,1.579-2.5,3.947
				C262.5,221.842,263.5,223.421,265,223.421z"/>
			<path fill="#7E44B4" d="M227.5,219.474c0,2.368,1,3.947,2.5,3.947h25c1.5,0,2.5-1.579,2.5-3.947c0-2.369-1-3.947-2.5-3.947h-25
				C228.5,215.526,227.5,217.105,227.5,219.474z"/>
			<path fill="#7E44B4" d="M282.5,223.421h7.5c1.5,0,2.5-1.579,2.5-3.947c0-2.369-1-3.947-2.5-3.947h-7.5
				c-1.5,0-2.5,1.579-2.5,3.947C280,221.842,281,223.421,282.5,223.421z"/>
			<path fill="#7E44B4" d="M295,243.158h20c1.5,0,2.5-1.579,2.5-3.947c0-2.369-1-3.948-2.5-3.948h-20c-1.5,0-2.5,1.579-2.5,3.948
				C292.5,241.579,293.5,243.158,295,243.158z"/>
			<path fill="#7E44B4" d="M282.5,235.263h-25c-1.5,0-2.5,1.579-2.5,3.948c0,2.368,1,3.947,2.5,3.947h25c1.5,0,2.5-1.579,2.5-3.947
				C285,236.842,284,235.263,282.5,235.263z"/>
		</g>
	</g>
</g>
</svg>
