<?xml version="1.0" encoding="utf-8"?>
<!-- Generator: Adobe Illustrator 16.0.4, SVG Export Plug-In . SVG Version: 6.00 Build 0)  -->
<!DOCTYPE svg PUBLIC "-//W3C//DTD SVG 1.1//EN" "http://www.w3.org/Graphics/SVG/1.1/DTD/svg11.dtd">
<svg version="1.1" id="Capa_1" xmlns="http://www.w3.org/2000/svg" xmlns:xlink="http://www.w3.org/1999/xlink" x="0px" y="0px"
	 width="150px" height="150px" viewBox="231 321 150 150" enable-background="new 231 321 150 150" xml:space="preserve">
<g>
	<path fill="#7E44B4" d="M370.795,450.59c-1.935,0-3.746,0.541-5.289,1.479l-41.295-41.295c-0.072-0.072-0.148-0.137-0.227-0.197
		c3.236-3.983,5.18-9.057,5.18-14.577c0-5.513-1.938-10.58-5.167-14.562l28.149-28.149c3.022,2.302,6.79,3.672,10.873,3.672
		c9.914,0,17.98-8.066,17.98-17.98S372.934,321,363.02,321c-9.915,0-17.98,8.066-17.98,17.98c0,4.083,1.37,7.851,3.672,10.873
		l-28.149,28.149c-3.981-3.228-9.049-5.167-14.562-5.167c-5.513,0-10.58,1.939-14.562,5.167l-12.999-12.999
		c0.939-1.543,1.48-3.354,1.48-5.289c0-5.627-4.578-10.205-10.205-10.205s-10.205,4.578-10.205,10.205s4.578,10.205,10.205,10.205
		c1.935,0,3.746-0.541,5.289-1.48l12.999,12.999c-3.228,3.982-5.167,9.048-5.167,14.562c0,3.127,0.626,6.109,1.754,8.834
		l-30.909,16.741c-2.349-2.854-5.908-4.679-9.885-4.679c-7.056,0-12.797,5.74-12.797,12.797c0,7.056,5.741,12.797,12.797,12.797
		s12.797-5.741,12.797-12.797c0-1.341-0.208-2.633-0.592-3.848l30.91-16.742c4.181,6.07,11.176,10.061,19.088,10.061
		c0.888,0,1.763-0.055,2.625-0.153l3.221,14.496c-3.364,1.67-5.684,5.142-5.684,9.146c0,5.627,4.578,10.205,10.205,10.205
		s10.205-4.578,10.205-10.205c0-5.553-4.458-10.08-9.982-10.2l-3.222-14.496c2.648-0.892,5.084-2.245,7.209-3.972
		c0.062,0.078,0.126,0.154,0.197,0.227l41.295,41.295c-0.938,1.543-1.479,3.354-1.479,5.289c0,5.627,4.578,10.205,10.205,10.205
		S381,466.422,381,460.795S376.422,450.59,370.795,450.59z M243.797,437.631c-4.376,0-7.938-3.561-7.938-7.938
		s3.561-7.938,7.938-7.938s7.938,3.561,7.938,7.938S248.173,437.631,243.797,437.631z M321.713,442.652
		c0,2.947-2.398,5.346-5.346,5.346s-5.346-2.398-5.346-5.346s2.398-5.346,5.346-5.346S321.713,439.705,321.713,442.652z
		 M363.02,325.859c7.235,0,13.121,5.886,13.121,13.121s-5.886,13.121-13.121,13.121s-13.121-5.886-13.121-13.121
		S355.784,325.859,363.02,325.859z M264.369,359.715c0-2.948,2.398-5.346,5.346-5.346s5.346,2.398,5.346,5.346
		c0,2.947-2.398,5.346-5.346,5.346C266.768,365.061,264.369,362.662,264.369,359.715z M306,414.305
		c-10.093,0-18.305-8.212-18.305-18.305c0-10.093,8.211-18.305,18.305-18.305c10.093,0,18.305,8.211,18.305,18.305
		C324.305,406.093,316.093,414.305,306,414.305z M370.795,466.141c-2.947,0-5.346-2.398-5.346-5.346s2.398-5.346,5.346-5.346
		s5.346,2.398,5.346,5.346S373.742,466.141,370.795,466.141z"/>
	<path fill="#7E44B4" d="M306,383.203c-1.342,0-2.43,1.088-2.43,2.43s1.088,2.43,2.43,2.43c4.377,0,7.938,3.561,7.938,7.938
		c0,1.342,1.088,2.43,2.43,2.43s2.43-1.088,2.43-2.43C318.797,388.944,313.057,383.203,306,383.203z"/>
	<path fill="#7E44B4" d="M363.02,336.227c1.519,0,2.754,1.235,2.754,2.754c0,1.342,1.088,2.43,2.43,2.43s2.43-1.088,2.43-2.43
		c0-4.198-3.415-7.613-7.613-7.613c-1.342,0-2.43,1.088-2.43,2.43S361.678,336.227,363.02,336.227z"/>
</g>
</svg>
