<?xml version="1.0" encoding="utf-8"?>
<!-- Generator: Adobe Illustrator 16.0.4, SVG Export Plug-In . SVG Version: 6.00 Build 0)  -->
<!DOCTYPE svg PUBLIC "-//W3C//DTD SVG 1.1//EN" "http://www.w3.org/Graphics/SVG/1.1/DTD/svg11.dtd">
<svg version="1.1" id="Layer_1" xmlns="http://www.w3.org/2000/svg" xmlns:xlink="http://www.w3.org/1999/xlink" x="0px" y="0px"
	 width="150px" height="150px" viewBox="231 321 150 150" enable-background="new 231 321 150 150" xml:space="preserve">
<g>
	<g>
		<path fill="#7E44B4" d="M319.601,382.101c-4.747,0-8.609,3.718-8.609,8.288c0,4.57,3.862,8.288,8.609,8.288
			c4.748,0,8.61-3.717,8.61-8.288C328.211,385.818,324.349,382.101,319.601,382.101z M319.601,392.7
			c-1.324,0-2.401-1.037-2.401-2.312c0-1.274,1.077-2.311,2.401-2.311s2.401,1.037,2.401,2.311
			C322.002,391.663,320.925,392.7,319.601,392.7z"/>
	</g>
</g>
<g>
	<g>
		<path fill="#7E44B4" d="M377.895,337.521h-18.459c-1.715,0-3.104,1.338-3.104,2.988v3.559h-8.555
			c-1.714,0-3.104,1.338-3.104,2.988v9.352c0,1.65,1.391,2.988,3.104,2.988h8.555v19.587H338.25v-4.805
			c0-1.65-1.39-2.988-3.104-2.988h-2.077v-6.676c0-1.65-1.39-2.988-3.104-2.988h-20.727c-1.715,0-3.104,1.338-3.104,2.988v6.676
			h-2.078c-1.714,0-3.104,1.338-3.104,2.988v4.805h-22.939v-14.599h17.299c1.714,0,3.104-1.338,3.104-2.988v-9.664
			c0-11.463-8.904-20.957-20.403-22.424v-5.321c0-1.65-1.39-2.988-3.104-2.988h-40.806c-1.714,0-3.104,1.338-3.104,2.988v137.789
			c0,1.65,1.39,2.988,3.104,2.988h5.964v3.247c0,1.65,1.39,2.988,3.104,2.988c1.714,0,3.104-1.338,3.104-2.988v-3.247h28.768v3.247
			c0,1.65,1.39,2.988,3.104,2.988s3.104-1.338,3.104-2.988v-3.247h85.119v3.247c0,1.65,1.39,2.988,3.104,2.988
			s3.104-1.338,3.104-2.988v-3.247h5.316c1.715,0,3.104-1.338,3.104-2.988V340.51C380.999,338.859,379.609,337.521,377.895,337.521z
			 M278.013,335.35c8.062,1.412,14.194,8.221,14.194,16.383v6.676h-14.194V335.35z M350.881,353.42v-3.376h5.45v3.376H350.881z
			 M312.342,367.502h14.519v3.688h-14.519V367.502z M307.159,377.166h24.883v26.757h-24.883V377.166z M278.013,384.959h22.938v5.247
			h-22.938V384.959z M237.207,326.976h34.598v73.518h0h-34.597V326.976z M285.083,406.91v51.879h0h-47.875V406.47h37.702
			c1.714,0,3.104-1.338,3.104-2.988v-7.299h22.938v7.741h-12.765C286.473,403.923,285.083,405.26,285.083,406.91z M356.655,458.789
			h-65.364v-4h65.364V458.789z M356.655,448.813h-65.364v-7.117h65.364V448.813z M356.655,435.72h-65.364v-12.728h65.364V435.72z
			 M356.655,417.016h-65.364v-7.117h65.364V417.016z M374.791,458.789h-11.928V406.91l0,0c0-1.65-1.39-2.987-3.104-2.987h-21.509
			v-7.741h36.54V458.789L374.791,458.789z M374.791,390.206H338.25v-5.247h36.541V390.206z M374.791,378.983H362.54v-35.485h12.251
			V378.983z"/>
	</g>
</g>
<g>
	<g>
		<path fill="#7E44B4" d="M248.514,330.04c-4.479,0-8.124,3.508-8.124,7.82s3.644,7.82,8.124,7.82s8.124-3.508,8.124-7.82
			S252.994,330.04,248.514,330.04z M248.514,339.704c-1.056,0-1.916-0.827-1.916-1.844s0.859-1.844,1.916-1.844
			c1.057,0,1.916,0.827,1.916,1.844S249.571,339.704,248.514,339.704z"/>
	</g>
</g>
<g>
	<g>
		<path fill="#7E44B4" d="M260.497,381.166c-4.479,0-8.124,3.508-8.124,7.82s3.645,7.82,8.124,7.82s8.124-3.508,8.124-7.82
			S264.977,381.166,260.497,381.166z M260.497,390.829c-1.057,0-1.916-0.827-1.916-1.844s0.859-1.844,1.916-1.844
			s1.916,0.827,1.916,1.844S261.554,390.829,260.497,390.829z"/>
	</g>
</g>
<g>
	<g>
		<path fill="#7E44B4" d="M260.497,361.837c-4.479,0-8.124,3.508-8.124,7.82s3.645,7.82,8.124,7.82s8.124-3.508,8.124-7.82
			C268.621,365.345,264.977,361.837,260.497,361.837z M260.497,371.501c-1.057,0-1.916-0.827-1.916-1.844s0.859-1.844,1.916-1.844
			s1.916,0.827,1.916,1.844C262.413,370.674,261.554,371.501,260.497,371.501z"/>
	</g>
</g>
<g>
	<g>
		<path fill="#7E44B4" d="M243.495,413.274c-1.714,0-3.104,1.338-3.104,2.988v1.559c0,1.65,1.39,2.988,3.104,2.988
			s3.104-1.338,3.104-2.988v-1.559C246.599,414.612,245.209,413.274,243.495,413.274z"/>
	</g>
</g>
<g>
	<g>
		<path fill="#7E44B4" d="M243.495,424.497c-1.714,0-3.104,1.338-3.104,2.988v25.251c0,1.65,1.39,2.988,3.104,2.988
			s3.104-1.338,3.104-2.988v-25.251C246.599,425.835,245.209,424.497,243.495,424.497z"/>
	</g>
</g>
</svg>
