<?xml version="1.0" encoding="utf-8"?>
<!-- Generator: Adobe Illustrator 16.0.4, SVG Export Plug-In . SVG Version: 6.00 Build 0)  -->
<!DOCTYPE svg PUBLIC "-//W3C//DTD SVG 1.1//EN" "http://www.w3.org/Graphics/SVG/1.1/DTD/svg11.dtd">
<svg version="1.1" id="Capa_1" xmlns="http://www.w3.org/2000/svg" xmlns:xlink="http://www.w3.org/1999/xlink" x="0px" y="0px"
	 width="150px" height="150px" viewBox="231 321 150 150" enable-background="new 231 321 150 150" xml:space="preserve">
<g>
	<path fill="#7E44B4" d="M297.373,362.288c0.291,0,0.583-0.099,0.824-0.302l27.485-23.109c0.55-0.462,0.626-1.288,0.17-1.845
		c-0.455-0.557-1.27-0.634-1.819-0.172l-27.485,23.109c-0.549,0.462-0.625,1.288-0.17,1.845
		C296.633,362.126,297.001,362.288,297.373,362.288z"/>
	<path fill="#7E44B4" d="M287.085,370.938c0.291,0,0.583-0.099,0.824-0.302l6.857-5.765c0.549-0.461,0.625-1.288,0.17-1.845
		s-1.27-0.634-1.819-0.172l-6.857,5.765c-0.549,0.462-0.625,1.288-0.17,1.845C286.345,370.776,286.714,370.938,287.085,370.938z"/>
	<path fill="#7E44B4" d="M381,368.421c0-5.61-4.502-10.175-10.035-10.175c-0.4,0-0.795,0.027-1.184,0.073l-19.062-18.966
		c1.626-4.306,0.982-9.355-2.121-13.15l-0.354-0.434c-2.479-3.031-6.13-4.77-10.018-4.77c-3.021,0-5.967,1.078-8.295,3.036
		l-61.313,51.551c-1.162-0.332-2.362-0.502-3.576-0.502c-4.633,0-8.85,2.383-11.279,6.375l-0.297,0.489
		c-1.857,3.052-2.431,6.655-1.615,10.146c0.816,3.49,2.923,6.449,5.933,8.332l5.795,3.626h-15.49
		C238.666,404.052,231,411.825,231,421.38v6.406c0,8.391,5.913,15.405,13.734,16.99c0.005,0.011,0.007,0.021,0.013,0.032
		l7.305,14.024h-6.52c-1.64,0-2.973,1.353-2.973,3.015v6.137c0,1.663,1.333,3.016,2.973,3.016h84.7c1.64,0,2.974-1.353,2.974-3.016
		v-6.137c0-1.662-1.334-3.015-2.974-3.015h-33.223l-7.146-13.719h35.629c9.423,0,17.09-7.773,17.09-17.328v-6.405
		c0-9.556-7.667-17.328-17.09-17.328H315.1l-22.2-13.888l49.476-41.599l18.683,18.237c-0.083,0.527-0.128,1.067-0.128,1.618
		c0,2.676,1.025,5.112,2.696,6.931c-0.001,0.024-0.007,0.047-0.007,0.072v8c0,0.724,0.579,1.31,1.292,1.31h2.527l2.403,49.006
		c0.034,0.698,0.603,1.245,1.291,1.245s1.256-0.547,1.291-1.245l2.403-49.006h2.527c0.713,0,1.292-0.586,1.292-1.31v-8.464
		C380.113,373.19,381,370.909,381,368.421z M331.581,326.053c1.866-1.568,4.227-2.433,6.646-2.433c3.115,0,6.042,1.393,8.028,3.822
		l0.354,0.434c3.668,4.485,3.053,11.159-1.37,14.878l-55.375,46.558c0,0,0,0-0.001,0l-10.52,8.845
		c-0.117,0.099-0.235,0.193-0.355,0.286c-0.463,0.355-0.953,0.669-1.463,0.939c-0.021,0.012-0.041,0.023-0.062,0.034
		c-1.466,0.765-3.101,1.173-4.765,1.173c-3.115,0-6.042-1.393-8.027-3.821l-0.354-0.433c-3.668-4.485-3.053-11.16,1.369-14.878
		l4.045-3.401c0.001,0,0.002-0.002,0.003-0.002L331.581,326.053z M330.622,461.847v6.138c0,0.218-0.175,0.395-0.39,0.395h-84.7
		c-0.214,0-0.389-0.177-0.389-0.395v-6.138c0-0.217,0.175-0.394,0.389-0.394h84.7C330.447,461.453,330.622,461.63,330.622,461.847z
		 M290.248,451.463h-17.776c-0.713,0-1.292,0.586-1.292,1.31s0.579,1.311,1.292,1.311h19.141l2.474,4.749h-39.112l-7.149-13.725
		c0.088,0.001,0.176,0.007,0.264,0.007h38.852L290.248,451.463z M325.493,406.673c7.998,0,14.505,6.598,14.505,14.707v6.406
		c0,8.109-6.507,14.708-14.505,14.708h-77.404c-7.154,0-13.111-5.28-14.29-12.197h15.306c0.714,0,1.292-0.587,1.292-1.311
		s-0.578-1.311-1.292-1.311h-15.521v-4.986h11.077c0.713,0,1.292-0.586,1.292-1.31s-0.579-1.31-1.292-1.31h-11.017
		c0.061-0.698,0.171-1.382,0.325-2.049h36.824c0.714,0,1.292-0.586,1.292-1.31s-0.579-1.311-1.292-1.311h-35.953
		c2.264-5.138,7.349-8.729,13.248-8.729h19.678l45.73,28.606c2.094,1.31,4.493,2.002,6.941,2.002c0.001,0,0.001,0,0.002,0
		c4.343,0,8.321-2.096,10.804-5.648c0.166-0.237,0.324-0.48,0.477-0.73l0.298-0.489c3.833-6.301,1.896-14.59-4.317-18.478
		l-8.413-5.263L325.493,406.673L325.493,406.673z M314.054,406.477C314.055,406.477,314.055,406.477,314.054,406.477l12.291,7.688
		c5.002,3.129,6.561,9.8,3.475,14.872l-0.297,0.488c-1.956,3.216-5.352,5.135-9.083,5.135c-1.969,0-3.9-0.557-5.585-1.611
		l-55.714-34.853c-2.422-1.516-4.118-3.897-4.775-6.706c-0.656-2.809-0.195-5.709,1.3-8.166l0.297-0.489
		c1.955-3.213,5.35-5.131,9.08-5.131c0.336,0,0.67,0.016,1.001,0.048l-2.007,1.688c-5.52,4.642-6.286,12.971-1.709,18.567
		l0.354,0.434c2.479,3.031,6.13,4.77,10.017,4.77c3.021,0,5.967-1.078,8.295-3.036l9.806-8.245L314.054,406.477z M344.377,346.883
		l2.512-2.112c1.038-0.873,1.907-1.875,2.605-2.966l17.405,17.317c-2.174,0.981-3.944,2.721-4.978,4.889L344.377,346.883z
		 M370.965,360.866c4.108,0,7.451,3.389,7.451,7.555s-3.343,7.556-7.451,7.556c-4.109,0-7.451-3.39-7.451-7.556
		S366.855,360.866,370.965,360.866z M371.133,407.302l-1.107-22.568h2.214L371.133,407.302z M373.598,382.114h-4.93h-2.464v-4.738
		c1.417,0.778,3.039,1.22,4.761,1.22c1.859,0,3.602-0.518,5.097-1.415v4.932L373.598,382.114L373.598,382.114z"/>
	<path fill="#7E44B4" d="M318.841,430.254c4.329,0,7.85-3.57,7.85-7.959s-3.521-7.959-7.85-7.959c-4.328,0-7.849,3.57-7.849,7.959
		C310.991,426.684,314.513,430.254,318.841,430.254z M318.841,416.956c2.903,0,5.266,2.395,5.266,5.339
		c0,2.943-2.362,5.339-5.266,5.339s-5.265-2.396-5.265-5.339C313.576,419.351,315.938,416.956,318.841,416.956z"/>
	<path fill="#7E44B4" d="M266.435,387.948c0,4.389,3.521,7.959,7.85,7.959c4.328,0,7.849-3.57,7.849-7.959
		c0-4.388-3.521-7.959-7.849-7.959C269.956,379.989,266.435,383.56,266.435,387.948z M279.549,387.948
		c0,2.944-2.362,5.339-5.265,5.339c-2.903,0-5.266-2.395-5.266-5.339c0-2.943,2.362-5.338,5.266-5.338
		C277.187,382.61,279.549,385.004,279.549,387.948z"/>
	<path fill="#7E44B4" d="M337.333,342.718c4.328,0,7.85-3.57,7.85-7.959s-3.521-7.959-7.85-7.959s-7.849,3.571-7.849,7.959
		C329.483,339.148,333.005,342.718,337.333,342.718z M337.333,329.42c2.903,0,5.266,2.395,5.266,5.339s-2.362,5.338-5.266,5.338
		s-5.265-2.395-5.265-5.338C332.067,331.815,334.43,329.42,337.333,329.42z"/>
</g>
</svg>
