<?xml version="1.0" encoding="utf-8"?>
<!-- Generator: Adobe Illustrator 16.0.4, SVG Export Plug-In . SVG Version: 6.00 Build 0)  -->
<!DOCTYPE svg PUBLIC "-//W3C//DTD SVG 1.1//EN" "http://www.w3.org/Graphics/SVG/1.1/DTD/svg11.dtd">
<svg version="1.1" id="Capa_1" xmlns="http://www.w3.org/2000/svg" xmlns:xlink="http://www.w3.org/1999/xlink" x="0px" y="0px"
	 width="150px" height="150px" viewBox="19.846 19.846 150 150" enable-background="new 19.846 19.846 150 150"
	 xml:space="preserve">
<g>
	<g>
		<path fill="#7E44B4" d="M169.203,144.385c-1.063-8.495-7.475-15.054-13.822-19.68c-0.082-0.059-0.156-0.061-0.236-0.107
			c0.865-2.505,1.311-5.16,1.147-7.988c-0.48-8.247-7.69-15.432-13.142-20.745c3.971-2.581,8.126-7.552,9.368-12.117
			c1.551-5.696-3.808-11.04-7.118-14.578c-4.81-5.137-10.628-11.215-17.848-11.556c-6.004-0.283-11.12,5.716-14.466,10.459
			c-4.357-2.854-8.317-2.533-12.312-0.658c-0.262-0.298-0.575-0.557-0.961-0.713c-0.737-0.299-1.953-0.416-2.26-1.345
			c-0.362-1.091,0.251-2.558,0.612-3.56c0.478-1.328-1.433-2.521-2.279-1.409c-0.216,0.284-0.389,0.578-0.575,0.869
			c-1.448-0.072-2.895,0.221-4.256-0.471c-2.161-1.097-0.467-4.542,0.368-5.869c0.939-1.493-0.605-3.49-2.162-2.987
			c-2.706,0.875-4.286,0.224-5.641-1.753c0.017-0.346-0.126-0.696-0.448-0.922c-0.05-0.035-0.111-0.046-0.162-0.078
			c-0.082-0.148-0.165-0.281-0.246-0.439c-0.812-1.597-1.538-3.412-2.207-5.148c0.787-1.154-0.374-2.907-1.847-2.671
			c-5.751,0.922-10.052-2.458-9.049-9.051c0.247-1.626-1.25-3.335-2.804-2.29c-4.905,3.297-8.021-0.468-8.31-5.771
			c-0.059-1.084-1.247-1.649-2.017-1.292c-0.231-0.02-0.467,0.002-0.689,0.111c-4.168,2.016-7.773,2.718-10.675-1.957
			c-0.705-1.135-2.754-1.192-3.005,0.417c-0.882,5.661-4.917,8.287-9.825,5.342c-0.862-0.518-1.615,0.09-1.783,0.858
			c-0.514-0.131-1.141,0.142-1.239,0.746c-0.251,1.561,0.065,2.969-0.174,4.541c-0.507,3.336-4.091,3.991-6.637,3.808
			c-1.342-0.097-2.229,1.991-1.141,2.928c1.878,1.618,3.309,4.281,3.396,6.737c-1.196-0.122-1.66,1.784-0.408,2.146
			c0.024,0.007,0.051,0.015,0.076,0.023c-0.455,1.204-1.384,2.237-2.964,2.883c-1.027,0.42-1.071,1.641-0.484,2.251
			c-0.069,0.019-0.147,0.013-0.215,0.035c-0.804,0.27-1.297,1.523-0.542,2.18c1.701,1.478,5.428,2.869,6.812,4.85
			c-0.801,0.439-0.966,1.865,0.137,2.114c0.099,0.022,0.205,0.05,0.305,0.074c-0.215,0.805-0.825,1.694-2.016,2.701
			c-1.231,1.04-0.226,3.449,1.292,3.313c4.732-0.418,9.204,0.528,7.43,6.771c-0.272,0.962,0.52,1.526,1.248,1.403
			c-0.707,0.879-0.61,2.413,0.775,2.935c3.118,1.175,10.463,3.246,6.888,8.069c-1.191,1.606-0.117,3.822,1.87,3.412
			c2.848-0.586,5.566-0.069,7.099,1.706c-0.768,0.14-0.906,1.526-0.047,1.707c0.355,0.074,0.716,0.169,1.074,0.257
			c0.157,0.58,0.261,1.205,0.249,1.923c-1.139,0.842-0.608,3.402,1.025,3.233c3.62-0.372,6.593,0.012,8.872,2.826
			c-0.471,0.751-0.579,1.548-0.339,2.325c-1.392,0.061-2.757,1.721-1.762,3.177c8.813,12.906,18.906,24.685,29.893,35.536
			c7.326,7.233,15.772,16.216,26.354,16.24c3.062,0.007,6.104-1.283,9.026-3.194c5.591,14.732,23.512,16.386,34.452,7.31
			c5.17-4.288,8.553-10.446,8.53-17.467C170.116,146.01,169.918,144.923,169.203,144.385z M162.95,141.605
			c0.431,1.174,0.777,2.361,0.958,3.563c-0.777,0.242-1.557,0.478-2.35,0.652c-2.1,0.464-4.267,0.611-6.415,0.725
			c0.093-1.046,0.097-2.104-0.102-3.17c-0.058-0.31-0.153-0.6-0.243-0.892c1.73,0.013,3.46-0.069,5.177-0.343
			C160.931,141.99,161.966,141.859,162.95,141.605z M136.035,148.594c1.816-1.866,3.494-3.673,4.989-5.169
			c1.371-1.375,2.807-2.803,4.225-4.29c0.178,0.156,0.359,0.31,0.603,0.412c4.134,1.743,6.812,6.113,3.364,10.138
			C145.38,154.161,139.862,151.789,136.035,148.594z M136.334,153.572c-0.487,0.079-0.975,0.158-1.466,0.219
			c-1.606,0.198-3.223,0.315-4.838,0.422c1.21-1.006,2.398-2.052,3.534-3.15C134.402,151.996,135.339,152.835,136.334,153.572z
			 M150.447,137.03c1.615-0.137,3.231-0.199,4.853-0.234c1.514-0.031,3.335,0.066,4.855-0.442c0.401,0.581,0.81,1.158,1.157,1.757
			c-0.477,0.19-0.952,0.374-1.425,0.521c-2.082,0.644-4.233,0.997-6.393,1.153c-0.016,0.001-0.025,0.01-0.042,0.012
			C152.638,138.698,151.584,137.795,150.447,137.03z M157.418,132.95c-0.598,0.123-1.193,0.254-1.783,0.35
			c-2.151,0.344-4.299,0.73-6.41,1.293c1.432-1.768,2.778-3.598,3.88-5.545C154.672,130.236,156.111,131.553,157.418,132.95z
			 M127.552,62.728c5.439-0.335,10.816,6.694,14.211,10.308c2.092,2.229,6.808,6.47,5.279,10.104
			c-1.572,3.738-5.344,5.849-7.608,9.089c-1.311-1.287-2.652-2.604-3.989-3.915c2.549-0.723,4.517-3.373,4.742-6.17
			c0.27-3.351-1.429-6.439-3.384-8.908c-4.464-5.637-13.331-8.21-17.381-0.721c-0.111,0.207-0.169,0.414-0.203,0.617
			c-1.161-1.011-2.323-2.051-3.484-3.009C119.179,67.039,122.881,63.016,127.552,62.728z M132.583,84.26
			c-0.269,0.193-0.464,0.422-0.624,0.665c-3.422-3.321-6.892-6.629-10.388-9.761c0.203-0.086,0.402-0.217,0.584-0.408
			c3.476-3.624,7.709-2.036,10.786,1.308c1.211,1.316,2.399,3.17,2.539,5.055C135.622,83.055,133.859,83.34,132.583,84.26z
			 M95.434,69.272c0.285,0.276,0.592,0.531,0.927,0.747c-0.941,0.645-1.892,1.334-2.859,2.062c-0.49-0.665-1.081-1.432-1.712-2.242
			c0.031-0.007,0.042-0.006,0.078-0.014c0.222-0.062,0.442-0.103,0.669-0.137c0.484-0.073,0.958-0.206,1.444-0.268
			C94.474,69.355,94.956,69.323,95.434,69.272z M90.24,64.658c1.168,0.435,2.469,0.538,3.715,0.356
			c-0.024,0.347,0.019,0.717,0.045,1.083c-0.468,0.133-0.931,0.282-1.372,0.428c-0.902,0.299-1.823,0.759-2.246,1.54
			c-0.93-1.153-1.941-2.381-3.058-3.692C88.219,64.466,89.25,64.644,90.24,64.658z M36.899,68.234
			c0.998,0.127,1.992,0.317,2.981,0.575c0.455,0.688,0.898,1.349,1.307,1.948c0.85,1.241,1.891,2.722,3.04,4.3
			c-2.197-0.367-4.396-0.732-6.592-1.099c-0.086-0.014-0.161,0.004-0.24,0.011C38.183,71.761,37.862,69.812,36.899,68.234z
			 M39.526,39.321c8.382-6.27,26.004,11.188,31.445,16.142c6.619,6.026,13.185,12.658,18.616,19.951
			c-3.433,3.264-6.508,7.041-9.573,10.6c-2.68,3.112-5.752,5.824-8.764,8.562C59.433,84.468,22.673,51.924,39.526,39.321z
			 M86.557,57.839c-0.15,1.225-0.054,2.449,0.45,3.656c-0.022,0.002-0.047,0.005-0.068,0.007c-0.685,0.048-1.083,0.49-1.223,1.01
			c-1.329-1.52-2.745-3.095-4.252-4.707C83.073,57.916,84.888,58.037,86.557,57.839z M80.124,51.836
			c0.499,0.997,1.093,1.898,1.768,2.667c-0.678,0.032-1.356,0.06-2.033,0.086c-0.448,0.017-0.782,0.205-1.019,0.47
			c-1.064-1.091-2.149-2.183-3.267-3.267c0.947,0.025,1.896,0.052,2.845,0.069C78.953,51.871,79.536,51.866,80.124,51.836z
			 M73.828,45.435c0.122-0.043,0.181-0.148,0.28-0.218c1.29,0.247,2.667,0.202,4.118-0.305c0.085,1.149,0.311,2.331,0.615,3.492
			c-0.14,0-0.288-0.001-0.424-0.001c-1.879,0.003-3.761,0.089-5.64,0.136c-0.203,0.005-0.374,0.06-0.534,0.125
			c-1.008-0.916-2.019-1.831-3.049-2.708C70.749,45.906,72.358,45.947,73.828,45.435z M67.309,39.45
			c0.576,1.182,1.317,2.235,2.168,3.133c-1.214,0.147-2.446,0.397-3.64,0.639c-2.083-1.625-4.187-3.143-6.287-4.464
			c0.627,0.026,1.259,0.063,1.898,0.117C63.446,39.037,65.348,39.586,67.309,39.45z M44.551,24.982
			c3.233,2.811,7.976,4.081,11.279,1.472c0.081,0.868,0.272,1.687,0.515,2.475c-4.798-0.136-9.519,0.078-14.279-0.284
			C43.091,27.698,43.958,26.486,44.551,24.982z M37.202,30.718c6.688,1.833,13.863,1.938,20.74,1.467
			c1.904,2.56,4.856,3.835,8,2.652c0.053,0.423,0.126,0.843,0.215,1.256c-3.398-0.919-7.492-0.607-10.979,0.196
			c-5.645-2.82-11.084-4.005-15.703-2.335c-1.435-0.462-3.057-0.41-4.541-0.553c-0.811-0.078-1.62-0.156-2.43-0.215
			c0.337-1.175,0.337-2.426-0.225-3.697C33.948,30.44,35.621,30.795,37.202,30.718z M31.193,35.657
			c1.373,0.155,2.851,0.485,4.314,0.684c-0.332,0.287-0.668,0.557-0.985,0.887c-0.809,0.839-1.444,1.738-1.959,2.677
			c-0.821-0.215-1.674-0.333-2.246-0.484c-1.016-0.264-2.032-0.549-3.07-0.673C28.78,38.012,30.177,36.931,31.193,35.657z
			 M29.363,41.674c0.717,0.263,1.433,0.534,2.148,0.805c-0.428,1.512-0.598,3.098-0.537,4.728c-0.489-0.045-0.979-0.085-1.465-0.16
			c-0.58-0.089-1.154-0.213-1.729-0.335c0.116-2.092-0.419-4.317-1.437-6.287C27.296,40.981,28.338,41.295,29.363,41.674z
			 M25.338,53.712c-0.21,0.024-0.34,0.136-0.473,0.244c-0.552-0.264-1.111-0.495-1.665-0.621c2.183-0.812,3.508-2.368,4.154-4.238
			c1.288,0.367,2.612,0.674,3.904,0.738c0.208,1.266,0.502,2.542,0.899,3.815c-0.773-0.043-1.543-0.016-2.168-0.043
			C28.422,53.539,26.886,53.535,25.338,53.712z M27.569,55.782c0.51,0.043,1.015,0.102,1.53,0.14
			c1.087,0.081,2.175,0.188,3.255,0.35c0.271,0.04,0.534,0.088,0.792,0.131c0.698,1.751,1.508,3.474,2.377,5.123
			c-1.58-0.338-3.212-0.548-4.83-0.764c-0.176-0.879-0.49-1.775-1.065-2.694C29.148,57.302,28.403,56.516,27.569,55.782z
			 M35.721,66.785c-1.361-1.273-3.225-2.131-5.294-2.354c0.125-0.335,0.186-0.679,0.258-1.022c2.069,0.501,4.221,0.866,6.167,0.511
			c0.553,0.957,1.111,1.888,1.662,2.763C37.563,66.645,36.607,66.721,35.721,66.785z M46.154,81.152
			c-2.073-2.553-5.731-4.313-9.026-4.961c-0.335-0.065-0.625-0.026-0.892,0.056c0.139-0.21,0.246-0.417,0.365-0.625
			c0.115,0.151,0.271,0.277,0.517,0.322l6.845,1.284c0.739,0.138,1.484,0.308,2.23,0.466c1.006,1.323,2.058,2.672,3.192,4.046
			C48.303,81.572,47.228,81.362,46.154,81.152z M51.537,87.539c-0.328,0.004-0.538,0.167-0.678,0.382
			c-1.012-0.397-2.102-0.672-3.238-0.784c0.36-1.412,0.235-2.725-0.232-3.919c0.921,0.194,1.836,0.415,2.763,0.578
			c0.381,0.067,0.769,0.139,1.158,0.204c1.098,1.252,2.226,2.493,3.396,3.678C53.654,87.585,52.598,87.527,51.537,87.539z
			 M53.689,89.631c1.074,0.127,2.144,0.29,3.212,0.518c0.182,0.039,0.365,0.09,0.547,0.137c1.652,1.479,3.335,2.857,5.047,3.963
			c-2.177-0.417-4.403-0.732-6.595-0.983C55.556,91.799,54.759,90.591,53.689,89.631z M56.014,96.391
			c0.041-0.246,0.018-0.461,0.039-0.696c3.664,1.108,7.42,2.419,11.061,2.388c0.32-0.003,0.569-0.122,0.765-0.293
			c-1.048,1.031-2.082,2.074-3.053,3.17C62.808,97.816,59.626,96.348,56.014,96.391z M109.052,152.075
			c-16.764-9.124-30.375-29.23-42.977-44.174c0.898-0.244,1.697-1.082,1.667-2.114c-0.02-0.679,12.479-11.302,13.172-12.087
			c5.733-6.497,18.426-26.131,28.567-21.555c6.259,2.824,12.415,12.538,17.829,17.329c5.576,4.934,11.188,9.702,16.326,15.162
			c10.825,11.501,5.553,21.21-3.62,31.49C132.677,144.352,121.516,158.861,109.052,152.075z M143.25,164.977
			c-3.101-0.195-5.777-1.384-8.192-3.075c6.004,0.492,12.012,1.074,18.027,1.369C149.987,164.634,146.558,165.187,143.25,164.977z
			 M158.518,159.596c-0.225-0.103-0.479-0.167-0.775-0.166c-8.469,0.029-16.969-0.233-25.428,0.275
			c-1.067-0.972-2.088-2.021-3.073-3.1c3.813,0.342,8.484,1.03,11.888-0.575c2.752,0.834,5.627,0.727,8.223-0.665
			c0.104,0.102,0.187,0.224,0.355,0.255c3.609,0.673,7.854,0.992,11.803,0.357C160.713,157.209,159.734,158.422,158.518,159.596z
			 M163.529,151.635c-1.411,0.472-2.815,0.991-4.256,1.347c-2.502,0.618-5.078,0.777-7.642,0.746
			c0.341-0.321,0.681-0.646,1.005-1.026c0.877-1.03,1.477-2.219,1.914-3.465c2.956,0.176,6.344,0.393,9.452-0.157
			C163.913,149.933,163.77,150.785,163.529,151.635z"/>
		<path fill="#7E44B4" d="M145.595,113.426c-2.153-1.815-5.095-3.286-7.785-3.935c-2.402-0.578-4.122,3.123-1.74,4.383
			c1.049,0.554,2.04,1.222,3.014,1.912c1.051,0.749,1.961,1.745,3.062,2.391C144.873,119.775,148.21,115.629,145.595,113.426z"/>
		<path fill="#7E44B4" d="M144.116,121.554c-0.55-2.146-2.696-2.568-4.222-3.724c-1.361-1.032-2.303-2.572-3.693-3.543
			c-1.724-1.204-3.638,0.764-3.248,2.652c0.347,1.69,1.664,3.168,2.688,4.448c1.083,1.354,2.476,2.798,3.981,3.595
			c0.941,0.499,2.121,0.657,3.052,0c0.058-0.041,0.115-0.081,0.174-0.122C143.889,124.129,144.456,122.878,144.116,121.554z"/>
		<path fill="#7E44B4" d="M138.854,127.661c-0.401-1.915-1.921-2.154-3.321-2.923c-1.097-0.602-1.658-1.584-2.424-2.564
			c-1.244-1.594-3.842-0.282-3.775,1.661c0.12,3.523,3.222,5.99,6.026,7.229c0.972,0.429,1.986-0.159,2.722-0.765
			c0.049-0.039,0.097-0.079,0.146-0.119C138.913,129.615,139.026,128.485,138.854,127.661z"/>
	</g>
</g>
</svg>
