<?xml version="1.0" encoding="utf-8"?>
<!-- Generator: Adobe Illustrator 16.0.4, SVG Export Plug-In . SVG Version: 6.00 Build 0)  -->
<!DOCTYPE svg PUBLIC "-//W3C//DTD SVG 1.1//EN" "http://www.w3.org/Graphics/SVG/1.1/DTD/svg11.dtd">
<svg version="1.1" id="Layer_1" xmlns="http://www.w3.org/2000/svg" xmlns:xlink="http://www.w3.org/1999/xlink" x="0px" y="0px"
	 width="150px" height="150px" viewBox="0 -1.563 150 150" enable-background="new 0 -1.563 150 150" xml:space="preserve">
<g>
	<g>
		<g>
			<path fill="#7E44B4" d="M1.278,5.564l15.771,11.563v14.121h-3.416c-1.878,0-3.407,1.399-3.407,3.126V37.5
				c-1.881,0-3.404,1.399-3.404,3.125v6.25c0,1.726,1.523,3.125,3.404,3.125v28.125c0,4.122,2.918,7.623,6.952,8.877
				c0.761,7.498,4.915,12.584,12.636,15.496c6.592,2.49,15.87,3.604,31.55,3.74v40.635c0,1.73,1.528,3.127,3.404,3.127h34.099
				c1.876,0,3.404-1.396,3.404-3.127v-40.621h6.822v40.621c0,1.73,1.523,3.127,3.406,3.127h34.086c1.889,0,3.416-1.396,3.416-3.127
				V68.75c0-9.275-7.391-16.995-17.047-18.486v-6.513h3.404c1.889,0,3.416-1.402,3.416-3.126c0-1.726-1.527-3.125-3.416-3.125
				h-13.633c-1.883,0-3.406,1.399-3.406,3.125s1.523,3.126,3.406,3.126h3.404v6.513c-9.656,1.491-17.037,9.211-17.037,18.486v31.254
				h-6.822V68.75c0-9.275-7.379-16.995-17.047-18.486v-6.513h3.416c1.878,0,3.405-1.402,3.405-3.126
				c0-1.726-1.527-3.125-3.405-3.125H74.995c-1.876,0-3.404,1.399-3.404,3.125s1.526,3.126,3.404,3.126h3.416v6.513
				c-9.668,1.491-17.048,9.211-17.048,18.486v31.234c-14.531-0.129-23.295-1.126-28.958-3.264c-5.218-1.973-7.78-4.898-8.396-9.806
				c3.896-1.327,6.673-4.765,6.673-8.792V34.376c0-1.729-1.528-3.126-3.406-3.126h-3.414V15.626c0-0.949-0.471-1.848-1.279-2.442
				L5.538,0.685C4.066-0.393,1.924-0.175,0.75,1.172C-0.43,2.52-0.19,4.488,1.278,5.564z M115.902,68.75
				c0-6.893,6.123-12.5,13.643-12.5c7.516,0,13.633,5.607,13.633,12.5v75h-27.275l0,0V68.75z M68.183,68.75
				c0-6.893,6.111-12.5,13.634-12.5c7.521,0,13.633,5.607,13.633,12.5v75H68.185v-75H68.183z M17.048,78.125h6.812
				c0,1.723-1.529,3.129-3.405,3.129C18.577,81.254,17.048,79.848,17.048,78.125z M17.048,37.5h6.812v34.376h-6.812V37.5z"/>
			<path fill="#7E44B4" d="M126.092,62.501c0,1.726,1.527,3.124,3.41,3.124c0.006,0,0.006,0,0.006,0
				c0.008,0,0.023-0.003,0.039-0.003v0.003h-0.039c0.305,0.006,1.256,0.114,2.045,0.513c0.691,0.349,1.4,0.932,1.4,2.612v68.748
				c0,1.73,1.527,3.127,3.404,3.127c1.887,0,3.416-1.396,3.416-3.127V68.75c0-6.878-6.123-9.375-10.229-9.375v0.001
				c-0.02,0-0.029-0.001-0.043-0.001C127.617,59.375,126.092,60.774,126.092,62.501z"/>
			<path fill="#7E44B4" d="M78.367,62.501c0,1.726,1.526,3.124,3.41,3.124c0.31,0.006,1.259,0.114,2.047,0.513
				c0.695,0.349,1.398,0.932,1.398,2.612v68.748c0,1.73,1.526,3.127,3.416,3.127c1.878,0,3.404-1.396,3.404-3.127V68.75
				c0-6.878-6.115-9.375-10.228-9.375v0.001c-0.015,0-0.029-0.001-0.038-0.001C79.895,59.375,78.367,60.774,78.367,62.501z
				 M81.782,65.625c0.016,0,0.024-0.003,0.035-0.003v0.003H81.782z"/>
		</g>
	</g>
</g>
</svg>
